<svg xmlns="http://www.w3.org/2000/svg" width="50" height="50" viewBox="0 0 50 50"><defs><style>.a{fill:#c9c9c9}</style></defs><path class="a" d="M9.445 45.711l-2.314 2.315a1.172 1.172 0 00-.048 1.655 1.172 1.172 0 001.655-.048l2.315-2.314a1.172 1.172 0 00.048-1.655 1.172 1.172 0 00-1.656.047zm23.863 0l-2.315 2.315a1.172 1.172 0 00-.048 1.655 1.172 1.172 0 001.655-.048l2.314-2.314a1.172 1.172 0 00.048-1.655 1.172 1.172 0 00-1.654.047zm-7.954 0l-2.314 2.315a1.172 1.172 0 00-.048 1.655 1.172 1.172 0 001.655-.048l2.314-2.314a1.172 1.172 0 00.048-1.655 1.172 1.172 0 00-1.655.047zm-7.954 0l-2.314 2.315a1.172 1.172 0 00-.048 1.655 1.172 1.172 0 001.655-.048l2.314-2.314a1.172 1.172 0 00.048-1.655 1.172 1.172 0 00-1.655.047zm25.518-.047a1.172 1.172 0 00-1.655.048l-2.314 2.315a1.172 1.172 0 00-.048 1.655 1.172 1.172 0 001.655-.048l2.315-2.314a1.172 1.172 0 00.047-1.656z"/><path d="M36.107 27.699a13.822 13.822 0 01-13.806-13.806 13.716 13.716 0 018.576-12.781 15.269 15.269 0 00-.318 3.1 15.244 15.244 0 0015.226 15.227 15.247 15.247 0 003.1-.318 13.715 13.715 0 01-12.778 8.578z" fill="#fff"/><path class="a" d="M29.96 2.332a16 16 0 00-.111 1.882 15.955 15.955 0 0015.937 15.937 16 16 0 001.883-.111 13.24 13.24 0 01-3.689 4.318 12.975 12.975 0 01-7.87 2.629 13.111 13.111 0 01-13.1-13.1 12.975 12.975 0 012.629-7.87 13.238 13.238 0 014.319-3.689M31.891 0a14.521 14.521 0 00-10.3 13.892 14.517 14.517 0 0014.517 14.517A14.521 14.521 0 0050 18.109a14.512 14.512 0 01-4.215.624A14.516 14.516 0 0131.269 4.216 14.514 14.514 0 0131.891 0z"/><g><path d="M43.466 42.472c-.106 0-.211 0-.315-.009H32.173c-.118 0-.235.009-.354.009H10.228a9.528 9.528 0 01-9.517-9.517q0-.244.012-.486l.016-.214c.006-.089.012-.177.02-.265 0-.037.034-.275.034-.275.008-.066.016-.132.026-.2l.037-.212.014-.078.031-.176c.011-.059.021-.093.032-.139l.035-.153c.012-.055.024-.11.038-.164s.026-.1.041-.145l.042-.15a6.475 6.475 0 01.096-.311l.047-.139c.015-.045.03-.091.047-.136.022-.061.046-.121.07-.182 0 0 .08-.205.1-.244.029-.07.06-.137.09-.2 0 0 .078-.175.1-.213.032-.068.066-.135.1-.2l.1-.2c.04-.075.08-.145.121-.215l.1-.179c.05-.084.1-.166.155-.248l.086-.134a7.34 7.34 0 01.173-.249l.083-.117a8.76 8.76 0 01.193-.252l.082-.1c.07-.086.141-.169.212-.251l.078-.091c.075-.084.152-.166.23-.248l.074-.078c.083-.085.166-.166.251-.246l.069-.066c.089-.084.179-.163.27-.241l.061-.053c.1-.084.2-.162.293-.238l.059-.047c.1-.077.2-.153.307-.226l.05-.036c.11-.077.219-.149.329-.22l.055-.035c.1-.066.219-.134.335-.2l.025-.014c.135-.077.255-.141.377-.2l.034-.018q.187-.095.379-.181l.029-.013q.194-.087.393-.166l.032-.013c.126-.049.262-.1.4-.145.157-.053.3-.1.441-.138l.035-.01c.123-.034.268-.072.414-.106l.039-.009-.028.007a9.434 9.434 0 01.891-.161l.052-.007a9.357 9.357 0 01.912-.071h.418l.277-.538v-.092a9.461 9.461 0 01.8-2.174c.065-.124.125-.236.188-.346l.02-.034c.054-.093.115-.2.178-.3l.012-.019a9.566 9.566 0 01.933-1.247c.089-.1.165-.181.241-.261l.063-.066q.106-.11.216-.215l.086-.082.215-.2.093-.08c.074-.064.149-.128.225-.19l.081-.064c.247-.2.508-.383.777-.556l.143-.091c.065-.04.133-.08.2-.119l.171-.1.2-.107.188-.1a6.843 6.843 0 01.399-.186l.187-.082c.077-.032.157-.062.237-.093l.167-.064c.129-.047.264-.093.4-.135l.113-.033c.1-.03.205-.061.311-.088l.162-.039c.089-.022.18-.043.271-.063l.176-.035c.088-.017.177-.033.265-.047l.182-.028c.09-.013.182-.024.275-.035l.172-.019c.1-.01.2-.017.307-.023l.148-.01c.153-.007.306-.012.46-.012s.308 0 .462.012l.148.01c.1.007.206.014.307.023l.175.02c.093.011.185.022.277.035l.181.028c.09.015.179.031.267.048l.178.036c.088.019.178.04.267.062l.165.041c.1.026.194.054.29.083l.133.039c.142.045.28.091.416.14l.066.026c.117.044.23.088.341.134l.149.066c.082.036.165.073.247.112l.166.081c.074.037.149.075.223.114l.165.09c.072.04.143.081.213.122l.165.1c.07.043.139.088.208.133 0 0 .118.077.156.1.069.047.136.1.2.145l.147.106c.11.082.219.168.325.255l.128.11.2.17a13.981 13.981 0 01.452.437l.156.163c.049.052.1.107.147.162s.09.1.135.157.1.113.142.17.08.1.119.151l.036.046a5.368 5.368 0 01.197.267l.027.038a9.84 9.84 0 01.563.896c.034.061.066.124.1.186l.1.2c.036.073.07.147.1.221.025.054.051.11.075.167.034.077.066.153.1.228l.068.171c.03.077.06.156.088.235l.056.167c.033.1.058.172.08.245l.043.152a9.523 9.523 0 01.357 2.189l.066 1.469 1.11-.964a6.621 6.621 0 013.692-1.6 6.79 6.79 0 011.367 0 6.653 6.653 0 015.992 6.642v.092l-.01.857.844-.149a5.859 5.859 0 011.015-.09 5.818 5.818 0 015.817 5.524c0 .1.008.2.008.3s0 .2-.008.3a5.825 5.825 0 01-5.379 5.505l-.144.011c-.101-.002-.199.001-.297.001z" fill="#f2f2f2"/><path class="a" d="M19.886 16.193c.133 0 .273 0 .43.011h.138c.094.006.188.012.281.021l.129.014h.035c.086.01.171.02.254.032l.172.027c.082.013.164.028.242.043l.163.033c.084.018.168.038.246.057l.065.016.094.024c.09.023.179.049.267.076l.071.02.055.016c.138.043.262.085.382.129l.065.025c.1.039.209.08.306.12l.071.031.07.031.231.1.118.058.032.016.2.1.157.086.2.114.151.09.191.123.044.029c.034.022.068.044.1.067l.2.139.065.046.063.045q.154.116.3.237l.056.048.063.055.02.016.162.14.089.083.046.043.03.029.125.119a6.2 6.2 0 01.137.139l.136.142c.044.047.092.1.135.149l.126.145a11.431 11.431 0 01.249.307l.029.038.1.13.077.109.03.043c.154.217.3.446.436.682l.031.053.052.091c.031.056.061.113.09.17l.014.028.019.037.061.119c.033.068.065.137.1.2s.047.1.072.159l.088.207a8.714 8.714 0 01.143.374l.041.118.013.04.009.026c.022.067.045.133.066.2l.02.071.019.068a8.8 8.8 0 01.33 2.025l.131 2.938 2.22-1.93a5.916 5.916 0 013.3-1.432c.2-.02.41-.031.613-.031a6.117 6.117 0 01.612.031 5.943 5.943 0 015.354 5.927v.092l-.021 1.714 1.688-.3a5.172 5.172 0 01.892-.079 5.108 5.108 0 015.107 4.85c0 .087.007.176.007.264s0 .176-.007.264a5.114 5.114 0 01-4.722 4.833l-.1.009h-.006c-.092 0-.185.008-.278.008s-.186 0-.278-.008H32.156c-.108 0-.216.009-.325.009H10.24a8.817 8.817 0 01-8.807-8.807c0-.149 0-.3.011-.45v-.063l.007-.094v-.047c.005-.08.01-.161.018-.238 0-.031.008-.062.012-.093l.012-.093.009-.078c.007-.058.013-.116.022-.173l.019-.109.016-.088.014-.08.027-.152c.01-.052.018-.08.027-.12l.02-.084.017-.077c.011-.048.021-.1.032-.139l.036-.129.023-.081.021-.076.037-.131c.013-.044.031-.094.047-.141l.024-.071.025-.074.04-.117c.02-.055.042-.109.063-.163l.021-.054.03-.078.039-.1c.026-.062.054-.124.082-.185l.017-.039.029-.064.044-.1.092-.185.021-.041.031-.06.047-.093c.035-.065.072-.129.109-.193l.019-.033.031-.055.046-.08c.046-.077.094-.152.145-.231l.031-.049.046-.072c.052-.078.106-.154.159-.228l.041-.058.039-.055c.057-.078.117-.154.177-.231l.035-.045.041-.052c.064-.078.129-.155.193-.228l.04-.047.034-.04c.069-.078.141-.154.213-.23l.034-.036.035-.037c.075-.077.153-.152.228-.224l.04-.038.029-.028c.081-.075.164-.149.245-.219l.037-.032.029-.024c.087-.074.176-.146.266-.216l.014-.011.036-.028c.094-.072.188-.141.284-.21l.013-.009h.005l.032-.022c.1-.069.2-.136.3-.2l.051-.033c.1-.065.208-.128.319-.191l.033-.019c.109-.062.221-.122.334-.179l.022-.011.01-.005c.116-.059.234-.115.362-.172l.015-.007c.115-.051.234-.1.355-.149l.036-.014c.12-.047.245-.092.371-.135l.021-.007c.125-.042.25-.081.373-.116l.032-.009c.125-.035.251-.068.375-.1l.038-.008.019-.005c.119-.027.241-.052.365-.075h.025a8.54 8.54 0 01.39-.061h.029l.033-.005a9.174 9.174 0 01.825-.065h.844l.4-.768.159-.307v-.181a8.776 8.776 0 01.728-1.939v-.008q.078-.151.162-.3l.019-.034c.054-.094.11-.187.167-.279l.011-.017a8.893 8.893 0 01.864-1.154l.016-.019c.066-.075.135-.147.2-.219l.026-.027.034-.035c.065-.067.131-.133.2-.195l.081-.078c.066-.062.133-.124.2-.182l.056-.049.031-.027c.07-.06.139-.12.21-.178l.026-.02.049-.039c.228-.181.47-.354.716-.512l.06-.039.072-.046.188-.112.158-.091.183-.1.175-.09.179-.087c.062-.03.125-.057.188-.085l.013-.006.156-.068c.073-.03.148-.059.224-.088l.073-.029.074-.028c.132-.048.254-.089.377-.128l.026-.007.073-.021c.1-.029.193-.057.291-.083l.09-.022.058-.014c.084-.02.168-.041.25-.058l.165-.033c.081-.015.162-.03.248-.044l.164-.025c.085-.012.17-.023.252-.032l.05-.005.117-.012c.093-.009.187-.015.28-.021l.076-.005h.063c.154-.007.293-.011.426-.011m0-1.42c-.165 0-.33 0-.493.012l-.16.011c-.11.007-.219.014-.328.025l-.187.02c-.1.011-.2.024-.3.038l-.193.03c-.1.015-.191.033-.286.051l-.19.038c-.1.021-.194.043-.29.067l-.175.043a5.18 5.18 0 00-.337.1l-.119.035c-.146.045-.29.095-.433.146l-.175.068-.257.1a8.646 8.646 0 00-.2.087l-.222.1a8.194 8.194 0 00-.208.1l-.2.1-.212.114-.184.106a7.75 7.75 0 00-.217.129c-.051.032-.1.065-.153.1q-.432.278-.835.6l-.088.069c-.082.067-.161.135-.242.2l-.1.086c-.079.07-.156.141-.233.214l-.09.086a8.458 8.458 0 00-.232.232l-.068.071a9.961 9.961 0 00-.242.261l-.016.019a10.27 10.27 0 00-1 1.34q-.109.173-.21.351l-.014.024q-.1.177-.195.359l-.007.013a10.153 10.153 0 00-.882 2.419q-.253.008-.5.028h-.01q-.249.02-.5.052h-.01q-.246.032-.487.076h-.011q-.241.043-.478.1H7.89q-.236.055-.467.12h-.016q-.229.065-.454.141l-.02.007q-.223.075-.44.16l-.025.01q-.214.084-.424.178l-.03.014q-.206.093-.407.194l-.036.019q-.2.1-.389.209l-.044.025q-.187.107-.37.222l-.05.032q-.178.114-.35.234l-.057.04q-.168.119-.331.244l-.063.05c-.1.082-.208.165-.31.252l-.07.06q-.147.127-.288.258l-.077.073q-.136.129-.267.262l-.081.085c-.083.088-.166.176-.247.266l-.085.1a9.424 9.424 0 00-.226.268c-.031.037-.059.075-.089.113-.07.088-.139.178-.206.268l-.091.128c-.063.089-.126.177-.186.268-.032.047-.061.1-.092.144a9.124 9.124 0 00-.167.266l-.091.158c-.05.088-.1.175-.149.265-.031.057-.059.116-.089.173-.044.087-.089.174-.131.262-.03.062-.057.126-.086.19-.039.085-.078.171-.115.258-.028.067-.054.136-.081.2l-.1.254c-.033.086-.05.148-.075.222s-.056.164-.082.248-.046.159-.068.239-.047.16-.067.241-.039.17-.059.255-.037.157-.053.236-.032.18-.048.271-.028.151-.04.228c-.015.1-.025.195-.037.292-.009.072-.019.143-.027.215-.011.111-.018.223-.025.334 0 .06-.011.12-.014.18q-.013.259-.013.521A10.227 10.227 0 0010.212 43.16h21.591c.129 0 .256 0 .384-.01h10.912c.117.006.234.01.352.01.118 0 .235 0 .352-.01h.138v-.01a6.533 6.533 0 006.035-6.178q.008-.167.009-.336t-.009-.336a6.534 6.534 0 00-6.526-6.2 6.566 6.566 0 00-1.139.1v-.1a7.387 7.387 0 00-6.631-7.348 7.535 7.535 0 00-.755-.038 7.53 7.53 0 00-.755.038 7.352 7.352 0 00-4.086 1.772 10.192 10.192 0 00-.384-2.352 7.35 7.35 0 00-.133-.427l-.061-.182a7.704 7.704 0 00-.095-.253l-.072-.183c-.034-.082-.068-.163-.1-.244l-.082-.182c-.037-.079-.074-.159-.113-.237-.029-.06-.061-.119-.091-.178-.04-.077-.08-.155-.122-.232a5.015 5.015 0 00-.1-.17q-.235-.408-.506-.791l-.124-.175c-.042-.058-.1-.128-.147-.192s-.09-.116-.136-.173-.1-.122-.153-.183-.1-.113-.147-.169-.1-.116-.157-.173-.106-.112-.159-.167-.106-.109-.161-.162l-.174-.166c-.058-.055-.105-.1-.159-.149s-.139-.122-.21-.182c-.046-.039-.091-.08-.138-.118q-.172-.141-.35-.275c-.049-.037-.1-.072-.15-.108a11.737 11.737 0 00-.227-.162c-.056-.038-.112-.074-.169-.111-.073-.048-.147-.1-.222-.142l-.176-.106q-.113-.067-.228-.131l-.179-.1c-.079-.042-.16-.083-.24-.123-.059-.029-.117-.059-.176-.087-.088-.042-.177-.081-.267-.121l-.16-.07c-.12-.05-.241-.1-.362-.143l-.074-.029c-.146-.054-.295-.1-.444-.15l-.146-.043a8.244 8.244 0 00-.312-.089l-.178-.044c-.1-.023-.192-.046-.289-.066l-.191-.038c-.1-.018-.191-.036-.287-.051l-.194-.03c-.1-.014-.2-.026-.3-.038l-.188-.021c-.109-.011-.219-.018-.329-.025-.054 0-.107-.008-.162-.011a10.212 10.212 0 00-.5-.012z"/></g></svg>