<svg xmlns="http://www.w3.org/2000/svg" width="50" height="50" viewBox="0 0 50 50"><defs><style>.b{fill:#c9c9c9}</style></defs><path d="M34.44 31.111A15.566 15.566 0 0118.892 15.56a15.447 15.447 0 019.807-14.453 16.983 16.983 0 00-.388 3.614A16.988 16.988 0 0045.28 21.69a16.97 16.97 0 003.614-.388 15.447 15.447 0 01-14.454 9.809z" fill="#fff"/><path class="b" d="M27.765 2.311a17.751 17.751 0 00-.164 2.41A17.7 17.7 0 0045.282 22.4a17.775 17.775 0 002.41-.164 15.006 15.006 0 01-4.332 5.183 14.7 14.7 0 01-8.917 2.979A14.855 14.855 0 0119.602 15.56a14.7 14.7 0 012.979-8.918 15 15 0 015.184-4.331M29.72 0a16.264 16.264 0 00-11.538 15.56 16.258 16.258 0 0016.259 16.259 16.264 16.264 0 0015.56-11.538 16.262 16.262 0 01-4.721.7A16.258 16.258 0 0129.022 4.722a16.257 16.257 0 01.7-4.72z"/><path d="M43.465 49.29c-.106 0-.21 0-.315-.009H32.172c-.117 0-.235.009-.354.009H10.227A9.528 9.528 0 01.71 39.773c0-.163 0-.325.012-.486l.016-.214a5.32 5.32 0 01.053-.533c.008-.068.016-.136.026-.2.006-.041.038-.213.038-.213l.013-.077.031-.174c.011-.058.02-.091.031-.137l.037-.16.037-.159c.013-.053.027-.1.041-.147l.043-.152q.02-.074.042-.147l.053-.16.048-.143c.015-.044.029-.089.045-.132.022-.062.046-.122.07-.182 0 0 .081-.208.1-.247.027-.066.058-.132.087-.2 0 0 .081-.181.1-.217.034-.073.071-.143.107-.213l.1-.191c.042-.078.085-.154.129-.23l.094-.163c.051-.085.1-.168.157-.251l.083-.13c.058-.087.118-.171.177-.255l.081-.114c.064-.087.13-.171.2-.255l.079-.1a9.3 9.3 0 01.215-.255l.074-.085c.078-.087.156-.171.236-.254l.07-.074a8.51 8.51 0 01.254-.249l.066-.063c.09-.084.181-.165.275-.245l.056-.049c.1-.085.2-.164.3-.241l.059-.047c.1-.074.2-.151.308-.226l.025-.018c.13-.091.242-.165.354-.238l.031-.019c.124-.078.241-.149.36-.216l.033-.019c.121-.069.244-.135.369-.2l.027-.014q.191-.1.386-.185a9.502 9.502 0 011.293-.473c.14-.037.3-.082.45-.116s.3-.066.456-.094h.012c.136-.024.273-.046.411-.064l.047-.006a9.93 9.93 0 01.463-.049h.029a9.12 9.12 0 01.446-.024h.7v-.63a9.429 9.429 0 01.8-2.174 8.9 8.9 0 01.188-.346l.019-.034c.054-.093.115-.2.178-.3l.012-.019a9.59 9.59 0 01.933-1.247c.089-.1.164-.181.24-.261l.064-.068c.069-.071.142-.143.215-.214l.086-.082.215-.2.093-.08c.074-.064.149-.128.225-.19l.081-.064c.247-.2.508-.383.777-.556l.143-.091c.063-.039.128-.077.194-.115l.178-.1.2-.107.188-.1a8.429 8.429 0 01.398-.186l.187-.082c.078-.032.158-.063.238-.093l.167-.064c.129-.047.263-.093.4-.135l.112-.033c.1-.03.206-.061.312-.088l.162-.039c.09-.022.18-.043.271-.063l.176-.035c.088-.017.177-.033.265-.047l.182-.028c.09-.013.182-.024.274-.035l.172-.019c.1-.01.2-.017.307-.023l.148-.01c.153-.007.306-.012.46-.012s.309 0 .462.012l.148.01c.1.007.207.014.308.023l.175.02c.093.011.186.022.277.035l.18.028c.09.015.178.031.267.048l.177.036c.09.019.179.04.268.062l.167.041c.1.026.192.053.288.082l.138.04c.139.044.276.09.413.139l.07.028c.112.042.225.086.335.132l.152.067c.082.036.165.073.246.111l.155.076.232.119.167.091c.071.039.141.08.211.121l.165.1c.07.043.137.088.205.132l.157.1c.064.043.125.088.186.132l.166.119c.11.083.219.168.325.255l.13.112c.075.064.135.115.194.168l.151.141a5.65 5.65 0 01.311.306c.051.053.1.1.146.153s.1.109.148.164.089.1.134.155.1.115.145.174.083.1.124.158.1.124.139.181l.114.161c.168.238.327.487.473.739l.09.157c.035.064.069.129.1.193a3.076 3.076 0 01.2.408 8.772 8.772 0 01.327.801l.07.206.068.209.045.16c.065.227.117.435.159.635l.007.03a9.532 9.532 0 01.189 1.516l.066 1.469 1.11-.964a6.62 6.62 0 013.692-1.6 6.805 6.805 0 011.367 0 6.653 6.653 0 015.992 6.642v.092l-.01.857.844-.149a5.857 5.857 0 011.015-.09 5.83 5.83 0 015.824 5.824 5.843 5.843 0 01-5.386 5.805l-.143.011a6.026 6.026 0 01-.315.009z" fill="#f2f2f2"/><path class="b" d="M19.886 23.011c.133 0 .273 0 .43.011h.138c.094.006.188.012.281.021l.129.014h.034c.086.01.172.02.254.032l.172.027c.082.013.164.028.241.043l.168.034c.083.017.165.037.249.057l.034.008.118.029c.089.023.177.049.269.077l.067.019.057.017c.138.043.262.085.38.128l.066.026c.1.039.208.079.311.123l.073.032.066.029.227.1.156.077.2.1.156.086.2.114.151.091c.063.039.125.08.192.124l.03.019.116.077c.057.039.112.079.168.119l.027.02.058.042.069.05q.159.119.3.238l.059.05.063.054.013.011c.055.047.111.093.164.141l.09.084.048.045a9.89 9.89 0 01.29.285c.046.048.091.094.136.143l.137.151.125.144c.043.051.09.106.132.158s.077.1.115.147l.009.011c.04.051.08.1.121.158l.065.092.038.054c.156.22.3.451.438.684l.034.058a3.871 3.871 0 01.143.264l.012.022.017.033.062.121c.033.067.065.136.1.2s.049.107.071.158l.09.212c.021.052.042.1.062.157.027.072.055.143.081.216l.04.117.014.041.011.035c.021.063.043.127.062.189l.022.079.02.071c.06.211.108.4.147.587v.034a8.845 8.845 0 01.174 1.4l.131 2.938 2.22-1.929a5.916 5.916 0 013.3-1.432c.2-.02.41-.031.613-.031a6.109 6.109 0 01.612.031 5.943 5.943 0 015.354 5.927v.092l-.021 1.714 1.688-.3a5.169 5.169 0 01.892-.079 5.12 5.12 0 015.114 5.114 5.13 5.13 0 01-4.729 5.1l-.1.009h-.007c-.092 0-.185.008-.278.008s-.186 0-.278-.008H32.144c-.108 0-.216.009-.325.009H10.228a8.817 8.817 0 01-8.806-8.807c0-.149 0-.3.011-.45v-.063l.007-.094v-.047c.005-.08.01-.161.018-.238 0-.031.007-.061.011-.091l.012-.1.008-.069a4.588 4.588 0 01.041-.279l.017-.093.014-.082.027-.152c.009-.052.017-.078.026-.116l.02-.087.018-.081c.01-.046.02-.093.032-.138l.035-.127.023-.082.022-.078c.012-.043.023-.085.036-.126l.047-.141.025-.074.025-.075.039-.115c.014-.04.041-.108.062-.161l.023-.058.029-.074.039-.1.08-.181.02-.044.031-.069a3.471 3.471 0 01.142-.286l.016-.032.036-.07.041-.08c.038-.071.078-.141.119-.211l.011-.019.033-.059.042-.074c.047-.078.1-.155.145-.231l.038-.06.04-.062c.052-.079.108-.157.16-.231l.04-.057.038-.053c.058-.079.119-.157.18-.234l.037-.047.037-.047c.065-.08.132-.158.2-.234l.035-.041.035-.04c.071-.08.144-.157.219-.236l.03-.031.033-.035c.077-.078.156-.155.234-.23l.033-.032.028-.027c.083-.077.168-.153.251-.224l.034-.03.025-.021c.089-.075.179-.148.275-.224l.031-.024.02-.016q.14-.107.284-.209l.03-.021.013-.009c.1-.071.205-.139.3-.2l.045-.029c.1-.065.212-.131.325-.195l.009-.005h.008l.015-.009a8.95 8.95 0 01.34-.183h.01l.01-.005.01-.005a8.5 8.5 0 01.354-.169l.017-.008a9.51 9.51 0 01.371-.156l.025-.01a9.822 9.822 0 01.783-.264 7.946 7.946 0 01.828-.192h.014c.115-.021.232-.039.349-.055l.073-.009c.137-.018.276-.033.415-.044h.043c.128-.01.259-.017.392-.021h1.4v-1.258a8.74 8.74 0 01.724-1.932v-.017q.078-.148.16-.294l.019-.034c.054-.094.11-.187.167-.279l.01-.017a8.9 8.9 0 01.864-1.154l.017-.019c.066-.074.134-.147.2-.219l.029-.031.029-.031c.066-.067.132-.134.2-.2l.081-.078c.066-.062.133-.124.2-.184l.053-.046.032-.028c.07-.06.139-.12.208-.175l.029-.023.049-.038c.228-.181.47-.354.716-.512l.06-.039.073-.047c.059-.036.12-.072.188-.111l.158-.091.183-.1.177-.09.179-.087.188-.085.013-.006.156-.068c.073-.03.148-.059.223-.087l.076-.03.073-.028c.132-.048.254-.089.377-.128l.026-.007.072-.02c.1-.029.193-.057.293-.083l.089-.022.057-.014c.084-.02.168-.041.25-.058l.165-.033c.081-.015.163-.03.248-.044l.165-.025c.085-.012.17-.023.252-.032l.05-.005.116-.013c.093-.009.187-.015.28-.021l.075-.005h.064c.154-.007.293-.011.426-.011m0-1.42c-.165 0-.33 0-.493.013l-.16.011c-.11.007-.219.014-.328.025l-.186.02c-.1.011-.2.024-.3.038l-.193.03c-.1.015-.191.033-.287.051l-.189.038c-.1.021-.194.043-.29.067l-.175.043a5.18 5.18 0 00-.337.1l-.119.035c-.146.045-.29.095-.433.146a9.078 9.078 0 00-.175.068l-.257.1a8.646 8.646 0 00-.2.087l-.222.1a8.194 8.194 0 00-.208.1l-.2.1c-.065.032-.142.075-.212.114s-.123.07-.184.106-.146.085-.217.129c-.052.032-.1.065-.153.1q-.432.278-.835.6l-.088.069-.242.2-.1.086c-.079.07-.156.141-.233.214l-.09.086a10.19 10.19 0 00-.233.232l-.068.071a9.961 9.961 0 00-.242.261l-.016.019a10.26 10.26 0 00-1 1.34q-.109.173-.21.351l-.014.024q-.1.177-.195.359l-.007.013a10.152 10.152 0 00-.882 2.419 8.97 8.97 0 00-.5.028h-.008q-.251.02-.5.053h-.006c-.165.022-.33.047-.492.076h-.006q-.244.044-.483.1h-.007q-.239.056-.473.122h-.009q-.233.066-.461.143H6.93q-.226.076-.447.163l-.017.007q-.218.086-.431.181l-.023.01c-.14.063-.278.129-.415.2l-.028.015q-.2.1-.4.213l-.036.02q-.192.11-.377.227l-.042.027q-.182.116-.358.239l-.049.035q-.171.121-.338.249l-.057.045a9.582 9.582 0 00-.316.257l-.064.055c-.1.086-.2.174-.294.263l-.071.068q-.139.131-.273.267l-.076.08c-.085.089-.169.179-.251.271l-.081.093a10.05 10.05 0 00-.524.654l-.088.124c-.064.09-.127.18-.188.272-.031.046-.06.093-.09.14-.057.089-.115.178-.169.269-.031.051-.06.1-.089.155l-.151.268c-.03.056-.058.114-.087.17-.045.088-.09.176-.133.265-.029.061-.056.125-.084.187-.039.086-.079.172-.115.26-.028.067-.053.135-.08.2-.034.085-.068.17-.1.256s-.05.147-.075.22-.057.166-.083.25-.045.158-.067.238-.047.161-.068.243-.039.169-.059.254-.037.157-.053.236-.033.18-.048.27-.029.152-.04.228c-.014.1-.025.195-.037.292-.009.072-.02.143-.027.215-.011.111-.018.223-.025.334 0 .06-.01.12-.013.18q-.013.259-.013.521a10.227 10.227 0 0010.227 10.228h21.591c.129 0 .256 0 .384-.01h10.912c.117.006.234.01.352.01s.236 0 .352-.01h.138v-.01a6.533 6.533 0 006.044-6.514 6.534 6.534 0 00-6.534-6.534 6.566 6.566 0 00-1.139.1v-.1a7.387 7.387 0 00-6.631-7.348 7.544 7.544 0 00-.755-.038 7.532 7.532 0 00-.755.038 7.352 7.352 0 00-4.086 1.772 10.281 10.281 0 00-.206-1.639l-.005-.022a10.325 10.325 0 00-.171-.683c-.016-.057-.031-.115-.049-.172a11.277 11.277 0 00-.085-.26l-.062-.186c-.03-.084-.062-.168-.094-.251l-.073-.185-.1-.243-.083-.183c-.037-.079-.073-.159-.113-.237-.029-.06-.061-.119-.091-.178-.04-.077-.08-.155-.122-.231a4.159 4.159 0 00-.1-.169q-.237-.41-.509-.8l-.122-.171c-.041-.056-.1-.13-.148-.194a5.795 5.795 0 00-.289-.356c-.054-.061-.1-.113-.145-.168s-.1-.117-.159-.175-.1-.111-.157-.165-.107-.11-.162-.164-.115-.111-.173-.165l-.161-.15c-.055-.05-.138-.12-.207-.179-.047-.04-.093-.082-.141-.12q-.172-.141-.349-.274c-.049-.037-.1-.072-.15-.109-.075-.054-.15-.109-.227-.161l-.169-.112c-.073-.048-.146-.1-.221-.142a10.385 10.385 0 00-.177-.107q-.112-.066-.227-.13l-.18-.1q-.119-.063-.24-.123l-.177-.087a15.483 15.483 0 00-.265-.12c-.054-.024-.107-.048-.162-.071-.119-.05-.24-.1-.361-.142l-.075-.029c-.146-.054-.294-.1-.444-.15l-.147-.043a6.684 6.684 0 00-.311-.088l-.179-.044c-.1-.023-.191-.046-.288-.066l-.191-.039c-.1-.018-.19-.036-.287-.051l-.194-.03c-.1-.014-.2-.026-.3-.038l-.188-.021c-.109-.011-.219-.018-.329-.025-.054 0-.107-.008-.162-.011a10.196 10.196 0 00-.5-.013z"/></svg>